<?xml version="1.0" encoding="UTF-8"?>
<svg width="94px" height="77px" viewBox="0 0 94 77" version="1.1" xmlns="http://www.w3.org/2000/svg" xmlns:xlink="http://www.w3.org/1999/xlink">
    <!-- Generator: Sketch 44.1 (41455) - http://www.bohemiancoding.com/sketch -->
    <title>5</title>
    <desc>Created with Sketch.</desc>
    <defs>
        <circle id="path-1" cx="25.5" cy="10.5" r="5.5"></circle>
        <circle id="path-2" cx="77.5" cy="76.5" r="5.5"></circle>
    </defs>
    <g id="web设计图" stroke="none" stroke-width="1" fill="none" fill-rule="evenodd">
        <g id="1920首页-copy" transform="translate(-900.000000, -1680.000000)">
            <g id="5" transform="translate(895.000000, 1675.000000)">
                <path d="M9.89140732,23.6954727 C6.87330537,26.4418273 5.2984376,29.4368495 5.2984376,32.5083111 C5.2984376,43.6770822 26.0866025,52.931388 51.7984376,52.931388 C77.5102727,52.931388 98.2984376,43.6770822 98.2984376,32.5083111 C98.2984376,21.33954 77.5102727,12.0852342 51.7984376,12.0852342 C44.7713049,12.0852342 37.9658733,12.7754763 31.7613692,14.0874116 L9.89140732,23.6954727 Z" id="Oval-8" stroke="#2D5891" transform="translate(51.798438, 32.508311) rotate(-345.000000) translate(-51.798438, -32.508311) "></path>
                <g id="Oval-9">
                    <use fill="#F7F7F7" fill-rule="evenodd" xlink:href="#path-1"></use>
                    <circle stroke="#2D5891" stroke-width="1" cx="25.5" cy="10.5" r="5"></circle>
                </g>
                <g id="Oval-9-Copy">
                    <use fill="#F7F7F7" fill-rule="evenodd" xlink:href="#path-2"></use>
                    <circle stroke="#2D5891" stroke-width="1" cx="77.5" cy="76.5" r="5"></circle>
                </g>
                <path d="M84.4412498,39.6086918 C75.9866923,35.9746257 64.4790122,33.7390803 51.7984376,33.7390803 C35.1063013,33.7390803 20.446545,37.6128114 12.1079068,43.4510481 M6.30047041,49.3946391 C5.32009924,51.0775554 4.7984376,52.8427363 4.7984376,54.6621572 C4.7984376,66.2176535 25.8410544,75.5852342 51.7984376,75.5852342 L51.7984376,75.5852342 C57.3365582,75.5852342 62.6509583,75.1588212 67.5850056,74.3757234 M94.5038376,63.4119811 C97.2607036,60.7498149 98.7984376,57.7859294 98.7984376,54.6621572 C98.7984376,51.2616111 96.9761375,48.0505394 93.7425515,45.2119141" id="Oval-8-Copy" stroke="#2D5891" transform="translate(51.798438, 54.662157) rotate(-345.000000) translate(-51.798438, -54.662157) "></path>
            </g>
        </g>
    </g>
</svg>